<svg width="233" height="41" viewBox="0 0 233 41" fill="none" xmlns="http://www.w3.org/2000/svg">
<rect x="0.5" y="0.5" width="231.674" height="39.8156" rx="19.5" stroke="#9E00FF"/>
<path d="M39.4619 25.4827C38.7119 25.4827 38.0319 25.3327 37.4219 25.0327C36.8119 24.7327 36.2869 24.3277 35.8469 23.8177C35.4069 23.2977 35.0669 22.7177 34.8269 22.0777C34.5869 21.4277 34.4669 20.7627 34.4669 20.0827C34.4669 19.3727 34.5919 18.6977 34.8419 18.0577C35.0919 17.4077 35.4419 16.8327 35.8919 16.3327C36.3519 15.8227 36.8869 15.4227 37.4969 15.1327C38.1069 14.8327 38.7669 14.6827 39.4769 14.6827C40.2269 14.6827 40.9069 14.8377 41.5169 15.1477C42.1269 15.4577 42.6469 15.8727 43.0769 16.3927C43.5169 16.9127 43.8569 17.4927 44.0969 18.1327C44.3369 18.7727 44.4569 19.4277 44.4569 20.0977C44.4569 20.8077 44.3319 21.4877 44.0819 22.1377C43.8319 22.7777 43.4819 23.3527 43.0319 23.8627C42.5819 24.3627 42.0519 24.7577 41.4419 25.0477C40.8319 25.3377 40.1719 25.4827 39.4619 25.4827ZM35.5169 20.0827C35.5169 20.6627 35.6119 21.2227 35.8019 21.7627C35.9919 22.2927 36.2619 22.7677 36.6119 23.1877C36.9619 23.5977 37.3769 23.9277 37.8569 24.1777C38.3469 24.4177 38.8819 24.5377 39.4619 24.5377C40.0719 24.5377 40.6169 24.4127 41.0969 24.1627C41.5869 23.9027 42.0019 23.5627 42.3419 23.1427C42.6919 22.7127 42.9569 22.2327 43.1369 21.7027C43.3169 21.1727 43.4069 20.6327 43.4069 20.0827C43.4069 19.5027 43.3119 18.9477 43.1219 18.4177C42.9319 17.8877 42.6569 17.4127 42.2969 16.9927C41.9469 16.5727 41.5319 16.2427 41.0519 16.0027C40.5719 15.7627 40.0419 15.6427 39.4619 15.6427C38.8619 15.6427 38.3169 15.7677 37.8269 16.0177C37.3469 16.2677 36.9319 16.6077 36.5819 17.0377C36.2419 17.4577 35.9769 17.9327 35.7869 18.4627C35.6069 18.9927 35.5169 19.5327 35.5169 20.0827ZM48.1766 25.4077V18.5077H45.3866V17.5927H51.9866V18.5077H49.1966V25.4077H48.1766ZM60.7082 14.7577H61.5932L66.0182 25.4077H64.9082L63.5282 22.0777H58.7432L57.3782 25.4077H56.2532L60.7082 14.7577ZM63.2882 21.2527L61.1432 15.9877L58.9682 21.2527H63.2882ZM72.3 24.4777V25.4077H67.215V24.4777H69.345V18.0577C69.265 18.1777 69.13 18.3077 68.94 18.4477C68.75 18.5877 68.53 18.7177 68.28 18.8377C68.04 18.9577 67.8 19.0577 67.56 19.1377C67.32 19.2177 67.1 19.2577 66.9 19.2577V18.2677C67.13 18.2677 67.38 18.2027 67.65 18.0727C67.92 17.9427 68.18 17.7927 68.43 17.6227C68.68 17.4527 68.89 17.2927 69.06 17.1427C69.23 16.9927 69.325 16.8927 69.345 16.8427H70.395V24.4777H72.3ZM76.7042 27.2227V24.4927H76.8392C77.0692 24.4927 77.2792 24.4227 77.4692 24.2827C77.6592 24.1427 77.8292 23.8977 77.9792 23.5477C78.1292 23.1977 78.2492 22.7177 78.3392 22.1077C78.4292 21.4877 78.4892 20.7077 78.5192 19.7677L78.5942 17.5927H83.6792V24.4927H84.7292V27.2227H83.8142V25.4077H77.6042V27.2227H76.7042ZM78.3842 24.4927H82.6592V18.5077H79.5092L79.4642 19.8577C79.4342 20.7877 79.3692 21.5677 79.2692 22.1977C79.1792 22.8177 79.0592 23.3127 78.9092 23.6827C78.7692 24.0427 78.5942 24.3127 78.3842 24.4927ZM89.6054 25.5577C89.0454 25.5577 88.5254 25.4527 88.0454 25.2427C87.5754 25.0227 87.1654 24.7277 86.8154 24.3577C86.4754 23.9777 86.2104 23.5477 86.0204 23.0677C85.8304 22.5777 85.7354 22.0627 85.7354 21.5227C85.7354 20.9627 85.8304 20.4427 86.0204 19.9627C86.2104 19.4727 86.4804 19.0427 86.8304 18.6727C87.1804 18.2927 87.5904 17.9977 88.0604 17.7877C88.5404 17.5677 89.0604 17.4577 89.6204 17.4577C90.1804 17.4577 90.6954 17.5677 91.1654 17.7877C91.6354 17.9977 92.0454 18.2927 92.3954 18.6727C92.7454 19.0427 93.0154 19.4727 93.2054 19.9627C93.3954 20.4427 93.4904 20.9627 93.4904 21.5227C93.4904 22.0627 93.3954 22.5777 93.2054 23.0677C93.0154 23.5477 92.7454 23.9777 92.3954 24.3577C92.0554 24.7277 91.6454 25.0227 91.1654 25.2427C90.6954 25.4527 90.1754 25.5577 89.6054 25.5577ZM86.7704 21.5377C86.7704 22.1177 86.8954 22.6477 87.1454 23.1277C87.4054 23.5977 87.7504 23.9727 88.1804 24.2527C88.6104 24.5227 89.0854 24.6577 89.6054 24.6577C90.1254 24.6577 90.6004 24.5177 91.0304 24.2377C91.4604 23.9577 91.8054 23.5777 92.0654 23.0977C92.3254 22.6077 92.4554 22.0777 92.4554 21.5077C92.4554 20.9277 92.3254 20.3977 92.0654 19.9177C91.8054 19.4377 91.4604 19.0577 91.0304 18.7777C90.6004 18.4977 90.1254 18.3577 89.6054 18.3577C89.0854 18.3577 88.6104 18.5027 88.1804 18.7927C87.7604 19.0827 87.4204 19.4677 87.1604 19.9477C86.9004 20.4177 86.7704 20.9477 86.7704 21.5377ZM107.24 22.6627C107.24 23.1927 107.105 23.6677 106.835 24.0877C106.565 24.4977 106.2 24.8227 105.74 25.0627C105.29 25.2927 104.795 25.4077 104.255 25.4077H99.2295V14.7577H104.36C104.86 14.7577 105.29 14.8927 105.65 15.1627C106.02 15.4227 106.3 15.7627 106.49 16.1827C106.69 16.5927 106.79 17.0227 106.79 17.4727C106.79 18.0027 106.655 18.4927 106.385 18.9427C106.115 19.3927 105.74 19.7277 105.26 19.9477C105.87 20.1277 106.35 20.4627 106.7 20.9527C107.06 21.4427 107.24 22.0127 107.24 22.6627ZM106.19 22.4827C106.19 22.1227 106.11 21.7927 105.95 21.4927C105.79 21.1827 105.57 20.9327 105.29 20.7427C105.02 20.5527 104.71 20.4577 104.36 20.4577H100.28V24.4927H104.255C104.615 24.4927 104.94 24.3977 105.23 24.2077C105.52 24.0177 105.75 23.7727 105.92 23.4727C106.1 23.1627 106.19 22.8327 106.19 22.4827ZM100.28 15.6727V19.6027H103.94C104.29 19.6027 104.6 19.5127 104.87 19.3327C105.14 19.1427 105.355 18.8977 105.515 18.5977C105.675 18.2977 105.755 17.9777 105.755 17.6377C105.755 17.2777 105.68 16.9527 105.53 16.6627C105.38 16.3627 105.175 16.1227 104.915 15.9427C104.655 15.7627 104.36 15.6727 104.03 15.6727H100.28ZM113.975 24.4777V25.4077H108.89V24.4777H111.02V18.0577C110.94 18.1777 110.805 18.3077 110.615 18.4477C110.425 18.5877 110.205 18.7177 109.955 18.8377C109.715 18.9577 109.475 19.0577 109.235 19.1377C108.995 19.2177 108.775 19.2577 108.575 19.2577V18.2677C108.805 18.2677 109.055 18.2027 109.325 18.0727C109.595 17.9427 109.855 17.7927 110.105 17.6227C110.355 17.4527 110.565 17.2927 110.735 17.1427C110.905 16.9927 111 16.8927 111.02 16.8427H112.07V24.4777H113.975ZM121.514 25.4977C120.794 25.4977 120.179 25.3627 119.669 25.0927C119.159 24.8127 118.769 24.4227 118.499 23.9227L119.339 23.5477C119.529 23.8977 119.804 24.1727 120.164 24.3727C120.524 24.5627 120.959 24.6577 121.469 24.6577C122.079 24.6577 122.564 24.5177 122.924 24.2377C123.294 23.9577 123.479 23.5827 123.479 23.1127C123.479 22.6827 123.334 22.3377 123.044 22.0777C122.754 21.8177 122.354 21.6827 121.844 21.6727H121.049V20.9677H121.904C122.124 20.9677 122.324 20.9077 122.504 20.7877C122.684 20.6677 122.824 20.5077 122.924 20.3077C123.024 20.1077 123.074 19.8827 123.074 19.6327C123.074 19.2427 122.934 18.9277 122.654 18.6877C122.384 18.4477 121.984 18.3277 121.454 18.3277C121.014 18.3277 120.644 18.4177 120.344 18.5977C120.054 18.7677 119.819 19.0227 119.639 19.3627L118.859 18.9427C119.089 18.4827 119.429 18.1227 119.879 17.8627C120.339 17.6027 120.874 17.4727 121.484 17.4727C121.984 17.4727 122.419 17.5577 122.789 17.7277C123.169 17.8877 123.464 18.1227 123.674 18.4327C123.894 18.7327 124.004 19.0977 124.004 19.5277C124.004 19.8977 123.914 20.2427 123.734 20.5627C123.554 20.8727 123.304 21.1077 122.984 21.2677C123.444 21.4077 123.799 21.6527 124.049 22.0027C124.309 22.3527 124.439 22.7627 124.439 23.2327C124.439 23.7027 124.314 24.1077 124.064 24.4477C123.814 24.7877 123.469 25.0477 123.029 25.2277C122.589 25.4077 122.084 25.4977 121.514 25.4977ZM125.518 23.1577C125.518 22.6677 125.658 22.2477 125.938 21.8977C126.218 21.5377 126.603 21.2627 127.093 21.0727C127.593 20.8727 128.168 20.7727 128.818 20.7727C129.198 20.7727 129.593 20.8027 130.003 20.8627C130.413 20.9227 130.778 21.0127 131.098 21.1327V20.4727C131.098 19.8127 130.903 19.2877 130.513 18.8977C130.123 18.5077 129.583 18.3127 128.893 18.3127C128.473 18.3127 128.058 18.3927 127.648 18.5527C127.248 18.7027 126.828 18.9277 126.388 19.2277L125.998 18.5077C126.508 18.1577 127.008 17.8977 127.498 17.7277C127.988 17.5477 128.488 17.4577 128.998 17.4577C129.958 17.4577 130.718 17.7327 131.278 18.2827C131.838 18.8327 132.118 19.5927 132.118 20.5627V24.1777C132.118 24.3177 132.148 24.4227 132.208 24.4927C132.268 24.5527 132.363 24.5877 132.493 24.5977V25.4077C132.383 25.4177 132.288 25.4277 132.208 25.4377C132.128 25.4477 132.068 25.4477 132.028 25.4377C131.778 25.4277 131.588 25.3477 131.458 25.1977C131.328 25.0477 131.258 24.8877 131.248 24.7177L131.233 24.1477C130.883 24.5977 130.428 24.9477 129.868 25.1977C129.308 25.4377 128.738 25.5577 128.158 25.5577C127.658 25.5577 127.203 25.4527 126.793 25.2427C126.393 25.0227 126.078 24.7327 125.848 24.3727C125.628 24.0027 125.518 23.5977 125.518 23.1577ZM130.753 23.7577C130.863 23.6177 130.948 23.4827 131.008 23.3527C131.068 23.2227 131.098 23.1077 131.098 23.0077V21.8677C130.758 21.7377 130.403 21.6377 130.033 21.5677C129.673 21.4977 129.308 21.4627 128.938 21.4627C128.208 21.4627 127.618 21.6077 127.168 21.8977C126.718 22.1877 126.493 22.5827 126.493 23.0827C126.493 23.3727 126.568 23.6477 126.718 23.9077C126.868 24.1577 127.088 24.3677 127.378 24.5377C127.668 24.6977 128.008 24.7777 128.398 24.7777C128.888 24.7777 129.343 24.6827 129.763 24.4927C130.193 24.3027 130.523 24.0577 130.753 23.7577ZM138.131 25.4077V17.5927H144.416V25.4077H143.396V18.5077H139.151V25.4077H138.131ZM150.001 25.5577C149.441 25.5577 148.921 25.4527 148.441 25.2427C147.971 25.0227 147.561 24.7277 147.211 24.3577C146.871 23.9777 146.606 23.5477 146.416 23.0677C146.226 22.5777 146.131 22.0627 146.131 21.5227C146.131 20.9627 146.226 20.4427 146.416 19.9627C146.606 19.4727 146.876 19.0427 147.226 18.6727C147.576 18.2927 147.986 17.9977 148.456 17.7877C148.936 17.5677 149.456 17.4577 150.016 17.4577C150.576 17.4577 151.091 17.5677 151.561 17.7877C152.031 17.9977 152.441 18.2927 152.791 18.6727C153.141 19.0427 153.411 19.4727 153.601 19.9627C153.791 20.4427 153.886 20.9627 153.886 21.5227C153.886 22.0627 153.791 22.5777 153.601 23.0677C153.411 23.5477 153.141 23.9777 152.791 24.3577C152.451 24.7277 152.041 25.0227 151.561 25.2427C151.091 25.4527 150.571 25.5577 150.001 25.5577ZM147.166 21.5377C147.166 22.1177 147.291 22.6477 147.541 23.1277C147.801 23.5977 148.146 23.9727 148.576 24.2527C149.006 24.5227 149.481 24.6577 150.001 24.6577C150.521 24.6577 150.996 24.5177 151.426 24.2377C151.856 23.9577 152.201 23.5777 152.461 23.0977C152.721 22.6077 152.851 22.0777 152.851 21.5077C152.851 20.9277 152.721 20.3977 152.461 19.9177C152.201 19.4377 151.856 19.0577 151.426 18.7777C150.996 18.4977 150.521 18.3577 150.001 18.3577C149.481 18.3577 149.006 18.5027 148.576 18.7927C148.156 19.0827 147.816 19.4677 147.556 19.9477C147.296 20.4177 147.166 20.9477 147.166 21.5377ZM154.842 25.4527V24.5227C155.112 24.5227 155.352 24.4527 155.562 24.3127C155.772 24.1627 155.957 23.9127 156.117 23.5627C156.287 23.2127 156.422 22.7327 156.522 22.1227C156.622 21.5027 156.687 20.7177 156.717 19.7677L156.807 17.5927H161.877V25.4077H160.857V18.5077H157.707L157.677 19.8577C157.637 20.9377 157.552 21.8427 157.422 22.5727C157.292 23.2927 157.107 23.8627 156.867 24.2827C156.637 24.7027 156.352 25.0027 156.012 25.1827C155.672 25.3627 155.282 25.4527 154.842 25.4527ZM164.117 25.4077V17.5927H168.782V18.5077H165.137V25.4077H164.117ZM173.541 25.5577C172.981 25.5577 172.461 25.4527 171.981 25.2427C171.511 25.0227 171.101 24.7277 170.751 24.3577C170.411 23.9777 170.146 23.5477 169.956 23.0677C169.766 22.5777 169.671 22.0627 169.671 21.5227C169.671 20.9627 169.766 20.4427 169.956 19.9627C170.146 19.4727 170.416 19.0427 170.766 18.6727C171.116 18.2927 171.526 17.9977 171.996 17.7877C172.476 17.5677 172.996 17.4577 173.556 17.4577C174.116 17.4577 174.631 17.5677 175.101 17.7877C175.571 17.9977 175.981 18.2927 176.331 18.6727C176.681 19.0427 176.951 19.4727 177.141 19.9627C177.331 20.4427 177.426 20.9627 177.426 21.5227C177.426 22.0627 177.331 22.5777 177.141 23.0677C176.951 23.5477 176.681 23.9777 176.331 24.3577C175.991 24.7277 175.581 25.0227 175.101 25.2427C174.631 25.4527 174.111 25.5577 173.541 25.5577ZM170.706 21.5377C170.706 22.1177 170.831 22.6477 171.081 23.1277C171.341 23.5977 171.686 23.9727 172.116 24.2527C172.546 24.5227 173.021 24.6577 173.541 24.6577C174.061 24.6577 174.536 24.5177 174.966 24.2377C175.396 23.9577 175.741 23.5777 176.001 23.0977C176.261 22.6077 176.391 22.0777 176.391 21.5077C176.391 20.9277 176.261 20.3977 176.001 19.9177C175.741 19.4377 175.396 19.0577 174.966 18.7777C174.536 18.4977 174.061 18.3577 173.541 18.3577C173.021 18.3577 172.546 18.5027 172.116 18.7927C171.696 19.0827 171.356 19.4677 171.096 19.9477C170.836 20.4177 170.706 20.9477 170.706 21.5377ZM178.262 27.2227V24.4927H178.397C178.627 24.4927 178.837 24.4227 179.027 24.2827C179.217 24.1427 179.387 23.8977 179.537 23.5477C179.687 23.1977 179.807 22.7177 179.897 22.1077C179.987 21.4877 180.047 20.7077 180.077 19.7677L180.152 17.5927H185.237V24.4927H186.287V27.2227H185.372V25.4077H179.162V27.2227H178.262ZM179.942 24.4927H184.217V18.5077H181.067L181.022 19.8577C180.992 20.7877 180.927 21.5677 180.827 22.1977C180.737 22.8177 180.617 23.3127 180.467 23.6827C180.327 24.0427 180.152 24.3127 179.942 24.4927ZM187.203 23.1577C187.203 22.6677 187.343 22.2477 187.623 21.8977C187.903 21.5377 188.288 21.2627 188.778 21.0727C189.278 20.8727 189.853 20.7727 190.503 20.7727C190.883 20.7727 191.278 20.8027 191.688 20.8627C192.098 20.9227 192.463 21.0127 192.783 21.1327V20.4727C192.783 19.8127 192.588 19.2877 192.198 18.8977C191.808 18.5077 191.268 18.3127 190.578 18.3127C190.158 18.3127 189.743 18.3927 189.333 18.5527C188.933 18.7027 188.513 18.9277 188.073 19.2277L187.683 18.5077C188.193 18.1577 188.693 17.8977 189.183 17.7277C189.673 17.5477 190.173 17.4577 190.683 17.4577C191.643 17.4577 192.403 17.7327 192.963 18.2827C193.523 18.8327 193.803 19.5927 193.803 20.5627V24.1777C193.803 24.3177 193.833 24.4227 193.893 24.4927C193.953 24.5527 194.048 24.5877 194.178 24.5977V25.4077C194.068 25.4177 193.973 25.4277 193.893 25.4377C193.813 25.4477 193.753 25.4477 193.713 25.4377C193.463 25.4277 193.273 25.3477 193.143 25.1977C193.013 25.0477 192.943 24.8877 192.933 24.7177L192.918 24.1477C192.568 24.5977 192.113 24.9477 191.553 25.1977C190.993 25.4377 190.423 25.5577 189.843 25.5577C189.343 25.5577 188.888 25.4527 188.478 25.2427C188.078 25.0227 187.763 24.7327 187.533 24.3727C187.313 24.0027 187.203 23.5977 187.203 23.1577ZM192.438 23.7577C192.548 23.6177 192.633 23.4827 192.693 23.3527C192.753 23.2227 192.783 23.1077 192.783 23.0077V21.8677C192.443 21.7377 192.088 21.6377 191.718 21.5677C191.358 21.4977 190.993 21.4627 190.623 21.4627C189.893 21.4627 189.303 21.6077 188.853 21.8977C188.403 22.1877 188.178 22.5827 188.178 23.0827C188.178 23.3727 188.253 23.6477 188.403 23.9077C188.553 24.1577 188.773 24.3677 189.063 24.5377C189.353 24.6977 189.693 24.7777 190.083 24.7777C190.573 24.7777 191.028 24.6827 191.448 24.4927C191.878 24.3027 192.208 24.0577 192.438 23.7577ZM196.262 21.9877V14.6527H197.282V21.9877H196.262ZM196.262 25.4077V23.7277H197.282V25.4077H196.262Z" fill="#9E00FF"/>
</svg>
