<svg width="233" height="41" viewBox="0 0 233 41" fill="none" xmlns="http://www.w3.org/2000/svg">
<rect x="0.5" y="0.5" width="231.674" height="39.8156" rx="19.5" stroke="#9E00FF"/>
<path d="M48.9669 20.0077C48.9669 19.3577 49.0769 18.7227 49.2969 18.1027C49.5269 17.4727 49.8569 16.9027 50.2869 16.3927C50.7169 15.8727 51.2469 15.4627 51.8769 15.1627C52.5069 14.8527 53.2219 14.6977 54.0219 14.6977C54.9719 14.6977 55.7819 14.9177 56.4519 15.3577C57.1319 15.7877 57.6319 16.3427 57.9519 17.0227L57.1269 17.5327C56.8969 17.0627 56.6069 16.6927 56.2569 16.4227C55.9069 16.1427 55.5319 15.9427 55.1319 15.8227C54.7419 15.7027 54.3519 15.6427 53.9619 15.6427C53.3219 15.6427 52.7569 15.7727 52.2669 16.0327C51.7769 16.2827 51.3619 16.6227 51.0219 17.0527C50.6919 17.4727 50.4419 17.9477 50.2719 18.4777C50.1019 18.9977 50.0169 19.5277 50.0169 20.0677C50.0169 20.6577 50.1169 21.2227 50.3169 21.7627C50.5169 22.3027 50.7969 22.7827 51.1569 23.2027C51.5169 23.6127 51.9369 23.9427 52.4169 24.1927C52.9069 24.4327 53.4369 24.5527 54.0069 24.5527C54.4069 24.5527 54.8169 24.4827 55.2369 24.3427C55.6569 24.2027 56.0469 23.9877 56.4069 23.6977C56.7769 23.4077 57.0719 23.0327 57.2919 22.5727L58.1619 23.0227C57.9419 23.5527 57.6019 24.0027 57.1419 24.3727C56.6819 24.7427 56.1669 25.0227 55.5969 25.2127C55.0369 25.4027 54.4869 25.4977 53.9469 25.4977C53.2169 25.4977 52.5469 25.3427 51.9369 25.0327C51.3269 24.7127 50.7969 24.2927 50.3469 23.7727C49.9069 23.2427 49.5669 22.6527 49.3269 22.0027C49.0869 21.3427 48.9669 20.6777 48.9669 20.0077ZM64.7101 24.4777V25.4077H59.6251V24.4777H61.7551V18.0577C61.6751 18.1777 61.5401 18.3077 61.3501 18.4477C61.1601 18.5877 60.9401 18.7177 60.6901 18.8377C60.4501 18.9577 60.2101 19.0577 59.9701 19.1377C59.7301 19.2177 59.5101 19.2577 59.3101 19.2577V18.2677C59.5401 18.2677 59.7901 18.2027 60.0601 18.0727C60.3301 17.9427 60.5901 17.7927 60.8401 17.6227C61.0901 17.4527 61.3001 17.2927 61.4701 17.1427C61.6401 16.9927 61.7351 16.8927 61.7551 16.8427H62.8051V24.4777H64.7101ZM66.3261 26.6227L66.5811 25.3627H66.2361V23.9377H67.2261V25.3627L66.8511 26.6227H66.3261ZM72.7985 25.4077L75.7235 21.3877L73.0835 17.5927H74.2385L76.5935 20.9677H77.6135V17.5927H78.6635V20.9677H79.7135L82.0235 17.5927H83.1935L80.5385 21.3877L83.4935 25.4077H82.3085L79.7135 21.8677H78.6635V25.4077H77.6135V21.8677H76.5935L73.9835 25.4077H72.7985ZM85.1745 25.4077V17.6077H86.1945V24.0277L90.9495 17.5927H91.8645V25.4077H90.8445V19.0927L86.1645 25.4077H85.1745ZM94.0807 25.4077V17.5927H97.9807C98.4207 17.5927 98.7907 17.6877 99.0907 17.8777C99.3907 18.0577 99.6157 18.2927 99.7657 18.5827C99.9257 18.8727 100.006 19.1827 100.006 19.5127C100.006 19.9327 99.9057 20.3127 99.7057 20.6527C99.5057 20.9827 99.2157 21.2327 98.8357 21.4027C99.2857 21.5327 99.6507 21.7677 99.9307 22.1077C100.211 22.4477 100.351 22.8577 100.351 23.3377C100.351 23.7577 100.246 24.1227 100.036 24.4327C99.8357 24.7427 99.5557 24.9827 99.1957 25.1527C98.8457 25.3227 98.4407 25.4077 97.9807 25.4077H94.0807ZM95.0557 24.6727H97.9507C98.2107 24.6727 98.4457 24.6077 98.6557 24.4777C98.8757 24.3377 99.0457 24.1577 99.1657 23.9377C99.2957 23.7177 99.3607 23.4877 99.3607 23.2477C99.3607 22.9877 99.3007 22.7527 99.1807 22.5427C99.0607 22.3227 98.9007 22.1477 98.7007 22.0177C98.5007 21.8877 98.2707 21.8227 98.0107 21.8227H95.0557V24.6727ZM95.0557 21.1177H97.7107C97.9707 21.1177 98.2007 21.0477 98.4007 20.9077C98.6007 20.7677 98.7557 20.5877 98.8657 20.3677C98.9757 20.1477 99.0307 19.9177 99.0307 19.6777C99.0307 19.3177 98.9107 19.0027 98.6707 18.7327C98.4407 18.4627 98.1407 18.3277 97.7707 18.3277H95.0557V21.1177ZM105.498 25.5577C104.938 25.5577 104.418 25.4527 103.938 25.2427C103.458 25.0227 103.043 24.7277 102.693 24.3577C102.343 23.9777 102.068 23.5427 101.868 23.0527C101.678 22.5627 101.583 22.0377 101.583 21.4777C101.583 20.7477 101.748 20.0777 102.078 19.4677C102.418 18.8577 102.883 18.3727 103.473 18.0127C104.063 17.6427 104.733 17.4577 105.483 17.4577C106.253 17.4577 106.923 17.6427 107.493 18.0127C108.073 18.3827 108.528 18.8727 108.858 19.4827C109.188 20.0827 109.353 20.7427 109.353 21.4627C109.353 21.5427 109.353 21.6227 109.353 21.7027C109.353 21.7727 109.348 21.8277 109.338 21.8677H102.648C102.698 22.4277 102.853 22.9277 103.113 23.3677C103.383 23.7977 103.728 24.1427 104.148 24.4027C104.578 24.6527 105.043 24.7777 105.543 24.7777C106.053 24.7777 106.533 24.6477 106.983 24.3877C107.443 24.1277 107.763 23.7877 107.943 23.3677L108.828 23.6077C108.668 23.9777 108.423 24.3127 108.093 24.6127C107.763 24.9127 107.373 25.1477 106.923 25.3177C106.483 25.4777 106.008 25.5577 105.498 25.5577ZM102.618 21.1327H108.393C108.353 20.5627 108.198 20.0627 107.928 19.6327C107.668 19.2027 107.323 18.8677 106.893 18.6277C106.473 18.3777 106.008 18.2527 105.498 18.2527C104.988 18.2527 104.523 18.3777 104.103 18.6277C103.683 18.8677 103.338 19.2077 103.068 19.6477C102.808 20.0777 102.658 20.5727 102.618 21.1327ZM112.877 25.4077V18.5077H110.087V17.5927H116.687V18.5077H113.897V25.4077H112.877ZM121.883 25.4077V17.5927H125.783C126.223 17.5927 126.593 17.6877 126.893 17.8777C127.193 18.0577 127.418 18.2927 127.568 18.5827C127.728 18.8727 127.808 19.1827 127.808 19.5127C127.808 19.9327 127.708 20.3127 127.508 20.6527C127.308 20.9827 127.018 21.2327 126.638 21.4027C127.088 21.5327 127.453 21.7677 127.733 22.1077C128.013 22.4477 128.153 22.8577 128.153 23.3377C128.153 23.7577 128.048 24.1227 127.838 24.4327C127.638 24.7427 127.358 24.9827 126.998 25.1527C126.648 25.3227 126.243 25.4077 125.783 25.4077H121.883ZM122.858 24.6727H125.753C126.013 24.6727 126.248 24.6077 126.458 24.4777C126.678 24.3377 126.848 24.1577 126.968 23.9377C127.098 23.7177 127.163 23.4877 127.163 23.2477C127.163 22.9877 127.103 22.7527 126.983 22.5427C126.863 22.3227 126.703 22.1477 126.503 22.0177C126.303 21.8877 126.073 21.8227 125.813 21.8227H122.858V24.6727ZM122.858 21.1177H125.513C125.773 21.1177 126.003 21.0477 126.203 20.9077C126.403 20.7677 126.558 20.5877 126.668 20.3677C126.778 20.1477 126.833 19.9177 126.833 19.6777C126.833 19.3177 126.713 19.0027 126.473 18.7327C126.243 18.4627 125.943 18.3277 125.573 18.3277H122.858V21.1177ZM136.79 14.7577H137.675L142.1 25.4077H140.99L139.61 22.0777H134.825L133.46 25.4077H132.335L136.79 14.7577ZM139.37 21.2527L137.225 15.9877L135.05 21.2527H139.37ZM143.402 25.4077V17.5927H144.422V20.9527H148.892V17.5927H149.912V25.4077H148.892V21.8677H144.422V25.4077L143.402 25.4077ZM152.147 25.4077V17.5927H156.812V18.5077H153.167V25.4077H152.147ZM157.491 25.4527V24.5227C157.761 24.5227 158.001 24.4527 158.211 24.3127C158.421 24.1627 158.606 23.9127 158.766 23.5627C158.936 23.2127 159.071 22.7327 159.171 22.1227C159.271 21.5027 159.336 20.7177 159.366 19.7677L159.456 17.5927H164.526V25.4077H163.506V18.5077H160.356L160.326 19.8577C160.286 20.9377 160.201 21.8427 160.071 22.5727C159.941 23.2927 159.756 23.8627 159.516 24.2827C159.286 24.7027 159.001 25.0027 158.661 25.1827C158.321 25.3627 157.931 25.4527 157.491 25.4527ZM166.766 25.4077V17.6077H167.786V24.0277L172.541 17.5927H173.456V25.4077H172.436V19.0927L167.756 25.4077H166.766ZM175.673 25.4077V17.6077H176.693V24.0277L181.448 17.5927H182.363V25.4077H181.343V19.0927L176.663 25.4077H175.673Z" fill="#9E00FF"/>
</svg>
