<svg width="238" height="72" viewBox="0 0 238 72" fill="none" xmlns="http://www.w3.org/2000/svg">
<rect width="233.572" height="40.8185" rx="20" transform="matrix(0.991144 0.132792 -0.133818 0.991006 6.05566 0)" fill="white"/>
<path d="M36.2511 29.6816L37.2969 21.9369L43.5263 22.7715L42.4805 30.5162L41.4695 30.3808L42.3928 23.5428L38.1854 22.9791L37.2621 29.8171L36.2511 29.6816ZM47.9963 31.4066C47.4413 31.3322 46.9399 31.1591 46.4923 30.8873C46.0559 30.6068 45.689 30.26 45.3916 29.8469C45.1055 29.4252 44.9004 28.9638 44.7763 28.4629C44.6535 27.9521 44.6283 27.4291 44.7006 26.894C44.7755 26.339 44.9392 25.8363 45.1918 25.3858C45.4457 24.9255 45.7708 24.5352 46.1672 24.215C46.565 23.8849 47.0108 23.647 47.5048 23.5013C48.01 23.347 48.5401 23.3071 49.0951 23.3814C49.6502 23.4558 50.1459 23.6332 50.5823 23.9136C51.02 24.1841 51.3869 24.5309 51.683 24.954C51.9803 25.3671 52.1904 25.8291 52.3132 26.34C52.4372 26.8409 52.4618 27.3688 52.3869 27.9238C52.3146 28.4589 52.1515 28.9567 51.8976 29.417C51.6451 29.8675 51.3199 30.2578 50.9222 30.5879C50.5357 30.9094 50.0898 31.1473 49.5847 31.3016C49.0907 31.4473 48.5613 31.4823 47.9963 31.4066ZM45.7244 27.0463C45.6468 27.6211 45.6997 28.1629 45.8833 28.6718C46.0781 29.1721 46.3699 29.5895 46.7586 29.9241C47.1486 30.2488 47.6014 30.4456 48.1168 30.5147C48.6322 30.5837 49.1217 30.5081 49.5853 30.2877C50.049 30.0673 50.4418 29.7365 50.7637 29.2954C51.087 28.8443 51.2868 28.3363 51.363 27.7715C51.4407 27.1967 51.3827 26.6542 51.1893 26.144C50.9958 25.6338 50.7047 25.2114 50.316 24.8768C49.9273 24.5422 49.4752 24.3404 48.9598 24.2713C48.4444 24.2023 47.9542 24.2829 47.4892 24.5132C47.0341 24.7448 46.6456 25.0812 46.3237 25.5224C46.0031 25.9536 45.8033 26.4616 45.7244 27.0463ZM53.5429 31.9984L54.5887 24.2536L55.5997 24.3891L54.6743 31.2419L57.9897 31.6861L58.915 24.8333L59.9409 24.9707L59.0155 31.8235L62.316 32.2657L63.2414 25.4129L64.2524 25.5484L63.2066 33.2931L53.5429 31.9984ZM65.0962 31.2762C65.1618 30.7906 65.3568 30.3929 65.6811 30.0833C66.0068 29.7637 66.4252 29.5423 66.9363 29.4191C67.4586 29.2872 68.0419 29.2645 68.6862 29.3508C69.0628 29.4013 69.4503 29.4835 69.8486 29.5974C70.247 29.7113 70.5967 29.8489 70.8978 30.0103L70.9861 29.3563C71.0744 28.7022 70.9514 28.156 70.6171 27.7178C70.2827 27.2795 69.7736 27.0145 69.0897 26.9229C68.6734 26.8671 68.2514 26.8913 67.8236 26.9954C67.4071 27.0909 66.9607 27.2582 66.4844 27.497L66.1942 26.7317C66.7466 26.4526 67.2769 26.2613 67.7853 26.1579C68.2951 26.0446 68.8027 26.0218 69.3082 26.0895C70.2597 26.217 70.9762 26.5905 71.4576 27.2099C71.939 27.8293 72.1149 28.6196 71.985 29.5809L71.5013 33.1634C71.4826 33.3021 71.4982 33.4102 71.5483 33.4875C71.5998 33.5549 71.6893 33.6022 71.8168 33.6294L71.7084 34.4321C71.598 34.4274 71.5025 34.4247 71.4219 34.424C71.3413 34.4233 71.2818 34.4153 71.2435 34.4001C70.997 34.357 70.8194 34.2525 70.7106 34.0866C70.6019 33.9207 70.5539 33.7528 70.5667 33.583L70.6281 33.0162C70.221 33.4156 69.7232 33.7021 69.1347 33.8754C68.5476 34.0389 67.9666 34.0822 67.3917 34.0051C66.8961 33.9387 66.4592 33.7743 66.0809 33.5117C65.7139 33.2406 65.4405 32.9113 65.2607 32.524C65.0922 32.1282 65.0374 31.7122 65.0962 31.2762ZM70.2046 32.5659C70.3323 32.4418 70.4347 32.3193 70.5115 32.1984C70.5884 32.0776 70.6335 31.9676 70.6469 31.8685L70.7994 30.7387C70.4799 30.5648 70.1414 30.4185 69.784 30.3C69.4366 30.1828 69.0795 30.0997 68.7128 30.0505C67.9892 29.9536 67.3851 30.019 66.9002 30.2466C66.4154 30.4742 66.1395 30.8358 66.0726 31.3313C66.0338 31.6187 66.0714 31.9012 66.1852 32.1788C66.3005 32.4464 66.4904 32.6838 66.7551 32.8907C67.0211 33.0878 67.3474 33.2122 67.7339 33.264C68.2196 33.3291 68.6833 33.2954 69.125 33.1628C69.5766 33.0317 69.9365 32.8327 70.2046 32.5659ZM73.5061 34.673L74.5519 26.9283L79.1756 27.5478L79.0532 28.4545L75.4405 27.9705L74.5171 34.8084L73.5061 34.673ZM82.8267 36.0731C82.2717 35.9987 81.7703 35.8256 81.3227 35.5538C80.8863 35.2733 80.5194 34.9265 80.222 34.5134C79.9359 34.0917 79.7308 33.6303 79.6067 33.1294C79.4839 32.6186 79.4587 32.0956 79.5309 31.5605C79.6059 31.0055 79.7696 30.5028 80.0222 30.0524C80.2761 29.592 80.6012 29.2017 80.9976 28.8815C81.3954 28.5514 81.8412 28.3135 82.3352 28.1678C82.8403 28.0135 83.3705 27.9736 83.9255 28.0479C84.4805 28.1223 84.9763 28.2997 85.4127 28.5801C85.8504 28.8507 86.2173 29.1974 86.5133 29.6205C86.8107 30.0337 87.0208 30.4956 87.1435 31.0065C87.2676 31.5074 87.2922 32.0353 87.2173 32.5903C87.145 33.1254 86.9819 33.6232 86.728 34.0835C86.4755 34.534 86.1503 34.9243 85.7526 35.2544C85.3661 35.5759 84.9202 35.8138 84.415 35.9681C83.9211 36.1138 83.3917 36.1488 82.8267 36.0731ZM80.5548 31.7128C80.4772 32.2876 80.5301 32.8294 80.7137 33.3383C80.9085 33.8386 81.2002 34.256 81.589 34.5906C81.979 34.9153 82.4318 35.1121 82.9471 35.1812C83.4625 35.2502 83.9521 35.1746 84.4157 34.9542C84.8794 34.7338 85.2722 34.403 85.5941 33.9619C85.9174 33.5108 86.1172 33.0028 86.1934 32.438C86.271 31.8632 86.2131 31.3207 86.0197 30.8105C85.8262 30.3003 85.5351 29.8779 85.1464 29.5433C84.7577 29.2087 84.3056 29.0069 83.7902 28.9378C83.2748 28.8688 82.7846 28.9494 82.3196 29.1797C81.8645 29.4113 81.476 29.7477 81.1541 30.1889C80.8335 30.6201 80.6337 31.1281 80.5548 31.7128ZM88.3733 36.6649L89.4191 28.9202L93.2846 29.438C93.7207 29.4965 94.0747 29.6398 94.3466 29.8679C94.6198 30.0861 94.8114 30.3489 94.9213 30.6562C95.041 30.9648 95.0788 31.2827 95.0347 31.6097C94.9785 32.0259 94.8285 32.3892 94.5848 32.6996C94.3424 33.0001 94.0215 33.2093 93.6221 33.3273C94.0508 33.5159 94.3811 33.7973 94.6131 34.1714C94.8451 34.5455 94.929 34.9704 94.8648 35.4461C94.8086 35.8623 94.6557 36.2101 94.406 36.4894C94.1663 36.7701 93.8567 36.9707 93.4771 37.0914C93.1075 37.2134 92.6947 37.2438 92.2388 37.1828L88.3733 36.6649ZM89.438 36.066L92.3074 36.4504C92.5651 36.4849 92.8067 36.4517 93.0322 36.3508C93.269 36.2412 93.4616 36.0854 93.61 35.8833C93.7683 35.6826 93.8635 35.4633 93.8956 35.2254C93.9304 34.9678 93.9024 34.7269 93.8115 34.5029C93.722 34.2689 93.5869 34.0743 93.406 33.9189C93.2252 33.7635 93.0059 33.6685 92.7482 33.634L89.8194 33.2416L89.438 36.066ZM89.9137 32.5429L92.5452 32.8955C92.8029 32.93 93.0403 32.8912 93.2572 32.779C93.4742 32.6668 93.6519 32.509 93.7904 32.3056C93.9288 32.1022 94.0141 31.8816 94.0462 31.6437C94.0944 31.287 94.0176 30.9589 93.8159 30.6594C93.6241 30.3613 93.3448 30.1877 92.9781 30.1386L90.2871 29.778L89.9137 32.5429ZM96.3296 37.7308L97.3753 29.9861L98.3863 30.1216L98.017 32.8568L99.7713 33.0918C100.653 33.21 101.287 33.5269 101.671 34.0425C102.067 34.5495 102.215 35.1697 102.116 35.9031C102.052 36.3788 101.895 36.7966 101.644 37.1565C101.394 37.5164 101.06 37.7845 100.643 37.9606C100.235 38.1381 99.744 38.1883 99.1692 38.1113L96.3296 37.7308ZM97.4489 37.0636L99.1438 37.2906C99.5501 37.3451 99.8879 37.3096 100.157 37.1843C100.428 37.049 100.64 36.8605 100.794 36.6188C100.949 36.3671 101.047 36.0877 101.088 35.7805C101.128 35.4832 101.111 35.2034 101.035 34.941C100.971 34.6701 100.82 34.443 100.582 34.2598C100.356 34.0681 100.02 33.9423 99.5737 33.8826L97.9086 33.6595L97.4489 37.0636ZM103.183 38.6491L104.227 30.9192L105.238 31.0547L104.194 38.7845L103.183 38.6491ZM106.406 39.0808L107.449 31.351L108.46 31.4864L107.601 37.8487L113.175 32.103L114.082 32.2245L113.036 39.9692L112.025 39.8337L112.87 33.5755L107.387 39.2123L106.406 39.0808ZM110.914 30.8012C110.24 30.7109 109.741 30.4826 109.417 30.1163C109.093 29.7501 108.964 29.3242 109.03 28.8386L109.773 28.9382C109.733 29.2355 109.809 29.4978 110 29.7252C110.201 29.954 110.535 30.0996 111 30.162C111.456 30.2231 111.801 30.1734 112.035 30.013C112.278 29.8539 112.436 29.6178 112.509 29.3047L113.237 29.4023C113.172 29.8879 112.934 30.2647 112.524 30.5326C112.115 30.8006 111.578 30.8901 110.914 30.8012ZM119.022 40.7712L120.068 33.0265L126.297 33.8611L125.252 41.6058L124.241 41.4703L125.164 34.6324L120.957 34.0687L120.033 40.9066L119.022 40.7712ZM126.738 41.8503L126.862 40.9286C127.13 40.9645 127.377 40.927 127.604 40.8161C127.832 40.6954 128.049 40.4722 128.254 40.1466C128.47 39.8223 128.668 39.3645 128.848 38.7733C129.03 38.1722 129.2 37.4029 129.357 36.4654L129.737 34.3219L134.762 34.9951L133.716 42.7399L132.705 42.6044L133.629 35.7665L130.507 35.3482L130.296 36.6821C130.112 37.747 129.907 38.6326 129.68 39.3388C129.455 40.035 129.195 40.5753 128.901 40.9597C128.617 41.3454 128.295 41.6048 127.933 41.7381C127.572 41.8713 127.174 41.9087 126.738 41.8503ZM135.628 40.7259C135.694 40.2403 135.889 39.8427 136.213 39.533C136.539 39.2134 136.957 38.992 137.468 38.8688C137.991 38.737 138.574 38.7142 139.218 38.8006C139.595 38.851 139.982 38.9332 140.381 39.0471C140.779 39.161 141.129 39.2987 141.43 39.4601L141.518 38.806C141.606 38.152 141.483 37.6058 141.149 37.1675C140.815 36.7292 140.305 36.4643 139.622 36.3726C139.205 36.3169 138.783 36.341 138.356 36.4452C137.939 36.5407 137.493 36.7079 137.016 36.9468L136.726 36.1815C137.278 35.9023 137.809 35.7111 138.317 35.6077C138.827 35.4943 139.335 35.4715 139.84 35.5393C140.792 35.6668 141.508 36.0402 141.989 36.6596C142.471 37.279 142.647 38.0694 142.517 39.0307L142.033 42.6131C142.014 42.7519 142.03 42.8599 142.08 42.9373C142.132 43.0047 142.221 43.052 142.349 43.0792L142.24 43.8819C142.13 43.8772 142.034 43.8745 141.954 43.8738C141.873 43.873 141.814 43.8651 141.775 43.8499C141.529 43.8067 141.351 43.7022 141.243 43.5363C141.134 43.3704 141.086 43.2026 141.099 43.0328L141.16 42.4659C140.753 42.8654 140.255 43.1518 139.667 43.3252C139.079 43.4887 138.498 43.5319 137.924 43.4549C137.428 43.3885 136.991 43.224 136.613 42.9614C136.246 42.6903 135.972 42.3611 135.793 41.9738C135.624 41.5779 135.569 41.1619 135.628 40.7259ZM140.736 42.0157C140.864 41.8915 140.967 41.769 141.043 41.6482C141.12 41.5273 141.165 41.4173 141.179 41.3182L141.331 40.1885C141.012 40.0145 140.673 39.8682 140.316 39.7497C139.968 39.6326 139.611 39.5494 139.245 39.5003C138.521 39.4033 137.917 39.4687 137.432 39.6963C136.947 39.924 136.671 40.2855 136.605 40.781C136.566 41.0684 136.603 41.3509 136.717 41.6285C136.832 41.8962 137.022 42.1335 137.287 42.3405C137.553 42.5375 137.879 42.662 138.266 42.7138C138.752 42.7788 139.215 42.7451 139.657 42.6126C140.109 42.4814 140.468 42.2824 140.736 42.0157ZM144.038 44.1227L145.084 36.378L146.095 36.5135L145.645 39.8433L150.076 40.4368L150.525 37.1071L151.536 37.2425L150.49 44.9872L149.479 44.8518L149.953 41.3436L145.523 40.75L145.049 44.2582L144.038 44.1227ZM156.495 45.7917L157.541 38.047L158.552 38.1824L158.104 41.4974L159.264 41.6527L162.313 38.6864L163.473 38.8418L160.006 42.2062L162.799 46.6363L161.609 46.4769L159.137 42.5892L157.978 42.4339L157.506 45.9272L156.495 45.7917ZM173.95 49.9615L174.193 48.1629L168.008 47.3342L169.054 39.5895L170.065 39.725L169.14 46.5778L173.154 47.1156L174.079 40.2628L175.09 40.3982L174.165 47.251L175.221 47.3925L174.857 50.083L173.95 49.9615ZM179.958 49.0866C179.403 49.0122 178.902 48.8391 178.454 48.5672C178.008 48.2855 177.636 47.938 177.338 47.5249C177.042 47.1018 176.828 46.6342 176.695 46.1221C176.573 45.6112 176.549 45.0783 176.624 44.5234C176.721 43.7999 176.974 43.1579 177.383 42.5972C177.802 42.0378 178.328 41.6189 178.961 41.3405C179.595 41.0522 180.284 40.9578 181.027 41.0574C181.79 41.1597 182.429 41.432 182.945 41.8743C183.47 42.318 183.856 42.864 184.101 43.5124C184.348 44.1508 184.423 44.8268 184.327 45.5403C184.316 45.6196 184.305 45.6989 184.295 45.7781C184.285 45.8475 184.273 45.9014 184.258 45.9397L177.627 45.0513C177.602 45.6129 177.688 46.129 177.887 46.5995C178.097 47.0615 178.393 47.4492 178.774 47.7627C179.167 48.0675 179.611 48.2532 180.107 48.3196C180.612 48.3873 181.106 48.3222 181.586 48.1243C182.077 47.9277 182.44 47.6333 182.674 47.2409L183.519 47.5963C183.311 47.9417 183.024 48.2412 182.656 48.4947C182.289 48.7481 181.871 48.9292 181.402 49.0379C180.945 49.1381 180.463 49.1543 179.958 49.0866ZM177.696 44.3189L183.419 45.0858C183.456 44.5156 183.369 43.9995 183.159 43.5375C182.959 43.0769 182.662 42.6991 182.268 42.4041C181.885 42.1006 181.441 41.915 180.935 41.8473C180.43 41.7795 179.952 41.8417 179.503 42.0336C179.054 42.2157 178.667 42.5068 178.34 42.907C178.025 43.2986 177.81 43.7693 177.696 44.3189ZM184.609 49.6038L184.734 48.6822C185.001 48.718 185.249 48.6805 185.475 48.5697C185.704 48.4489 185.92 48.2257 186.126 47.9001C186.341 47.5758 186.539 47.1181 186.72 46.5268C186.902 45.9257 187.072 45.1564 187.228 44.2189L187.609 42.0754L192.634 42.7487L191.588 50.4934L190.577 50.3579L191.5 43.52L188.378 43.1017L188.168 44.4356C187.984 45.5006 187.778 46.3861 187.552 47.0923C187.327 47.7886 187.067 48.3289 186.773 48.7132C186.489 49.0989 186.166 49.3584 185.805 49.4916C185.444 49.6248 185.045 49.6622 184.609 49.6038ZM193.808 50.7909L194.852 43.061L195.863 43.1965L195.004 49.5587L200.578 43.813L201.485 43.9345L200.439 51.6792L199.428 51.5438L200.273 45.2856L194.789 50.9223L193.808 50.7909Z" fill="#E600FF"/>
</svg>
