<svg width="147" height="44" viewBox="0 0 147 44" fill="none" xmlns="http://www.w3.org/2000/svg">
<rect x="0.543016" y="0.453303" width="143.207" height="29.5677" rx="14.7839" transform="matrix(0.996002 -0.0893334 0.0900309 0.995939 0.307063 12.9327)" fill="#E600FF"/>
<rect x="0.543016" y="0.453303" width="143.207" height="29.5677" rx="14.7839" transform="matrix(0.996002 -0.0893334 0.0900309 0.995939 0.307063 12.9327)" stroke="#E600FF"/>
<path d="M44.7146 29.2678L44.011 21.4846L50.2709 20.9231L50.9745 28.7064L49.9586 28.7975L49.3374 21.9255L45.1093 22.3047L45.7305 29.1767L44.7146 29.2678ZM56.5511 28.3568C55.9933 28.4068 55.4659 28.3487 54.9689 28.1824C54.481 28.0053 54.0461 27.7481 53.6642 27.4109C53.2913 27.0628 52.9887 26.6582 52.7562 26.1972C52.5229 25.7261 52.3819 25.2217 52.3333 24.6839C52.2828 24.1262 52.3306 23.5998 52.4767 23.1048C52.6218 22.5998 52.852 22.1474 53.1673 21.7476C53.4817 21.3379 53.8635 21.0075 54.3127 20.7564C54.771 20.4944 55.279 20.3384 55.8368 20.2883C56.3945 20.2383 56.9174 20.3019 57.4053 20.479C57.8923 20.6461 58.3272 20.9033 58.71 21.2505C59.092 21.5877 59.3996 21.9919 59.6329 22.4629C59.8654 22.924 60.0068 23.4334 60.0573 23.9911C60.1059 24.5289 60.0576 25.0503 59.9125 25.5553C59.7665 26.0503 59.5363 26.5027 59.2219 26.9124C58.9165 27.3113 58.5347 27.6417 58.0765 27.9037C57.6273 28.1548 57.1188 28.3059 56.5511 28.3568ZM53.3655 24.6064C53.4177 25.184 53.5899 25.7007 53.8821 26.1564C54.1834 26.6013 54.5608 26.9439 55.0143 27.1844C55.4669 27.4149 55.9521 27.5069 56.47 27.4604C56.988 27.414 57.4485 27.2321 57.8515 26.9148C58.2546 26.5976 58.564 26.1883 58.7798 25.687C58.9946 25.1758 59.0764 24.6363 59.025 24.0686C58.9728 23.491 58.7956 22.9747 58.4935 22.5199C58.1913 22.0651 57.8134 21.7175 57.36 21.477C56.9065 21.2366 56.4208 21.1396 55.9028 21.186C55.3849 21.2325 54.9249 21.4193 54.5227 21.7466C54.1305 22.0729 53.8265 22.4867 53.6108 22.988C53.3941 23.4793 53.3124 24.0188 53.3655 24.6064ZM61.403 29.5933L61.1572 26.8744L61.2917 26.8623C61.5207 26.8418 61.7236 26.7533 61.9002 26.5969C62.0769 26.4405 62.2241 26.1813 62.342 25.8193C62.4599 25.4573 62.5362 24.9686 62.5709 24.353C62.6048 23.7275 62.5943 22.9453 62.5395 22.0064L62.4184 19.8336L67.4831 19.3793L68.1043 26.2513L69.1501 26.1575L69.3959 28.8764L68.4846 28.9581L68.3212 27.1505L62.136 27.7053L62.2994 29.5129L61.403 29.5933ZM62.8305 26.7243L67.0884 26.3424L66.5496 20.3817L63.4122 20.6631L63.4889 22.0116C63.5427 22.9405 63.5482 23.7232 63.5053 24.3596C63.4715 24.9851 63.3965 25.4888 63.2805 25.8707C63.1734 26.2417 63.0234 26.5263 62.8305 26.7243ZM69.9424 24.746C69.8983 24.258 69.9999 23.8272 70.2473 23.4536C70.4938 23.0701 70.8525 22.7618 71.3234 22.5288C71.8034 22.285 72.3671 22.134 73.0145 22.0759C73.393 22.042 73.7891 22.0366 74.2029 22.0597C74.6166 22.0828 74.9883 22.1399 75.3178 22.2308L75.2584 21.5735C75.199 20.9162 74.9575 20.4107 74.5339 20.0571C74.1104 19.7036 73.555 19.5576 72.8677 19.6192C72.4494 19.6567 72.0433 19.7735 71.6493 19.9695C71.2644 20.1546 70.8664 20.4162 70.4551 20.7543L70.0019 20.0721C70.4783 19.6779 70.9529 19.3743 71.4256 19.1612C71.8975 18.9382 72.3874 18.8039 72.8953 18.7583C73.8515 18.6726 74.6332 18.8785 75.2405 19.3763C75.8478 19.874 76.1951 20.6059 76.2824 21.572L76.6079 25.1723C76.6205 25.3117 76.6598 25.4136 76.7259 25.478C76.791 25.5324 76.8888 25.5588 77.0192 25.5571L77.0921 26.3638C76.9835 26.3836 76.8897 26.402 76.811 26.4191C76.7322 26.4363 76.6724 26.4416 76.6317 26.4352C76.3818 26.4476 76.1853 26.3849 76.0423 26.2471C75.8994 26.1093 75.8152 25.9562 75.79 25.7878L75.7237 25.2215C75.4156 25.7009 74.994 26.0902 74.4587 26.3892C73.9226 26.6782 73.3656 26.8486 72.788 26.9005C72.29 26.9451 71.8273 26.8812 71.4001 26.7087C70.9818 26.5253 70.642 26.2646 70.3805 25.9266C70.1281 25.5778 69.982 25.1843 69.9424 24.746ZM75.2105 24.876C75.3075 24.7267 75.38 24.5846 75.428 24.4498C75.4761 24.315 75.4956 24.1978 75.4866 24.0982L75.384 22.9628C75.0336 22.8637 74.6711 22.7958 74.2962 22.7592C73.9314 22.7216 73.5647 22.7194 73.1962 22.7524C72.4691 22.8176 71.8945 23.0147 71.4724 23.3438C71.0503 23.6728 70.8618 24.0863 70.9068 24.5843C70.9329 24.8731 71.0324 25.1403 71.2052 25.3858C71.3771 25.6214 71.6151 25.8109 71.9192 25.9543C72.2225 26.0877 72.5683 26.137 72.9568 26.1022C73.4448 26.0584 73.8894 25.9232 74.2907 25.6964C74.7018 25.4688 75.0085 25.1953 75.2105 24.876ZM82.9012 25.9934C82.2538 26.0515 81.6558 25.9344 81.1073 25.6422C80.5687 25.3492 80.1275 24.9671 79.7837 24.4959L80.2172 29.2913L79.2013 29.3825L78.21 18.4172L79.1214 18.3354L79.2578 19.8443C79.5224 19.3286 79.9002 18.8981 80.3911 18.5529C80.8811 18.1977 81.42 17.9937 82.0076 17.941C82.5454 17.8928 83.0488 17.9631 83.5177 18.152C83.9857 18.3309 84.4012 18.5948 84.7641 18.9438C85.127 19.2928 85.4201 19.7032 85.6435 20.1751C85.876 20.6362 86.0156 21.1257 86.0624 21.6436C86.1281 22.3706 86.0395 23.0563 85.7965 23.7006C85.5626 24.334 85.1983 24.8586 84.7038 25.2745C84.2092 25.6903 83.6083 25.93 82.9012 25.9934ZM82.5363 25.1225C82.9646 25.0841 83.3404 24.965 83.6637 24.7654C83.9862 24.5557 84.2534 24.2908 84.4654 23.9706C84.6874 23.6494 84.8465 23.2988 84.9427 22.9187C85.0379 22.5287 85.0676 22.1344 85.0315 21.7361C84.9937 21.3178 84.883 20.9261 84.6994 20.561C84.5258 20.1951 84.2914 19.8797 83.9964 19.615C83.7014 19.3503 83.3719 19.149 83.008 19.0109C82.6441 18.8729 82.2579 18.8222 81.8496 18.8588C81.5906 18.882 81.3262 18.9559 81.0563 19.0806C80.7864 19.2052 80.5306 19.3737 80.2887 19.5861C80.0559 19.7878 79.8652 20.0107 79.7166 20.2549C79.568 20.4992 79.4855 20.7526 79.469 21.0151L79.6851 23.4053C79.8778 23.7595 80.1221 24.074 80.418 24.3486C80.7131 24.6133 81.043 24.8197 81.4078 24.9677C81.7816 25.1048 82.1578 25.1564 82.5363 25.1225ZM91.4646 25.2253C90.9069 25.2753 90.3795 25.2172 89.8825 25.051C89.3946 24.8738 88.9597 24.6167 88.5777 24.2794C88.2049 23.9313 87.9022 23.5268 87.6698 23.0657C87.4364 22.5946 87.2954 22.0902 87.2468 21.5524C87.1964 20.9947 87.2442 20.4683 87.3902 19.9733C87.5354 19.4683 87.7656 19.0159 88.0809 18.6162C88.3952 18.2065 88.777 17.876 89.2263 17.6249C89.6845 17.3629 90.1925 17.2069 90.7503 17.1569C91.3081 17.1068 91.8309 17.1704 92.3188 17.3475C92.8059 17.5147 93.2408 17.7718 93.6236 18.119C94.0055 18.4563 94.3131 18.8604 94.5465 19.3314C94.779 19.7925 94.9204 20.3019 94.9708 20.8596C95.0194 21.3974 94.9712 21.9188 94.826 22.4238C94.68 22.9189 94.4498 23.3712 94.1354 23.7809C93.8301 24.1798 93.4483 24.5102 92.99 24.7722C92.5408 25.0234 92.0323 25.1744 91.4646 25.2253ZM88.279 21.4749C88.3312 22.0525 88.5035 22.5692 88.7957 23.0249C89.097 23.4698 89.4743 23.8125 89.9278 24.0529C90.3804 24.2834 90.8657 24.3754 91.3836 24.329C91.9015 24.2825 92.362 24.1007 92.7651 23.7834C93.1682 23.4661 93.4776 23.0568 93.6933 22.5555C93.9082 22.0443 93.9899 21.5048 93.9386 20.9372C93.8864 20.3595 93.7092 19.8433 93.407 19.3885C93.1048 18.9336 92.727 18.586 92.2735 18.3455C91.82 18.1051 91.3343 18.0081 90.8164 18.0546C90.2985 18.101 89.8384 18.2879 89.4363 18.6151C89.044 18.9414 88.7401 19.3552 88.5243 19.8565C88.3077 20.3478 88.2259 20.8873 88.279 21.4749ZM97.0047 24.5778L96.3011 16.7945L97.3171 16.7034L97.6182 20.0348L98.7835 19.9303L101.097 16.3644L102.262 16.2599L99.6308 20.3061L103.339 24.0096L102.144 24.1168L98.8686 20.8715L97.7033 20.976L98.0206 24.4867L97.0047 24.5778Z" fill="white"/>
</svg>
